<svg xmlns="http://www.w3.org/2000/svg" viewBox="0 0 800 560" role="img" aria-label="Aperçu de projet - placeholder">
  <defs>
    <linearGradient id="p4" x1="0" y1="0" x2="1" y2="1">
      <stop offset="0%" stop-color="#0a1440" />
      <stop offset="100%" stop-color="#1b2a6b" />
    </linearGradient>
  </defs>
  <rect width="800" height="560" fill="url(#p4)" />
  <circle cx="120" cy="90" r="140" fill="#2fb3a8" opacity="0.1" />
  <circle cx="700" cy="470" r="130" fill="#e3b93f" opacity="0.1" />

  <!-- Carte principale : fiche véhicule + prise de rendez-vous -->
  <g transform="translate(90 100)">
    <rect width="620" height="360" rx="10" fill="#ffffff" />
    <rect x="0" y="0" width="620" height="46" rx="10" fill="#f4f0e7" />
    <rect x="0" y="32" width="620" height="14" fill="#f4f0e7" />
    <circle cx="28" cy="23" r="6" fill="#2fb3a8" />
    <circle cx="48" cy="23" r="6" fill="#dcd5c5" />
    <circle cx="68" cy="23" r="6" fill="#dcd5c5" />

    <!-- silhouette de véhicule, stylisée -->
    <g transform="translate(36 70)">
      <rect x="0" y="46" width="230" height="60" rx="8" fill="#eae5d9" />
      <path d="M18 46 Q40 10 90 10 H150 Q195 10 212 46 Z" fill="#0a1440" opacity="0.85" />
      <rect x="60" y="20" width="90" height="26" rx="4" fill="#dff4f1" />
      <circle cx="42" cy="106" r="16" fill="#0a1440" />
      <circle cx="188" cy="106" r="16" fill="#0a1440" />
    </g>

    <rect x="300" y="70" width="284" height="18" rx="4" fill="#0a1440" />
    <rect x="300" y="100" width="230" height="9" rx="4" fill="#eae5d9" />
    <rect x="300" y="120" width="180" height="9" rx="4" fill="#eae5d9" />
    <rect x="300" y="150" width="140" height="32" rx="2" fill="#2fb3a8" />

    <rect x="36" y="248" width="168" height="70" rx="6" fill="#f4f0e7" />
    <rect x="226" y="248" width="168" height="70" rx="6" fill="#f4f0e7" />
    <rect x="416" y="248" width="168" height="70" rx="6" fill="#fdf6e3" />
  </g>

  <text x="400" y="512" text-anchor="middle" font-family="Georgia, serif" font-size="22" fill="#e3b93f" opacity="0.75">
    Maquette
  </text>
</svg>
